<?xml version="1.0" encoding="UTF-8"?>
<svg id="Objects" xmlns="http://www.w3.org/2000/svg" viewBox="0 0 1024 1024">
  <path d="M898.43,304.31c-20.75,0-37.57,16.82-37.57,37.57,0,15.75,9.7,29.22,23.43,34.81-29.96,58.83-125.13,155.61-205.77,138.93-57.04-11.8-111.6-78.42-161.86-251.44,25.48-2.35,45.44-23.79,45.44-49.88,0-27.67-22.43-50.1-50.1-50.1s-50.1,22.43-50.1,50.1c0,26.1,19.96,47.53,45.44,49.88-50.26,173.02-104.82,239.64-161.86,251.44-80.64,16.68-175.8-80.09-205.77-138.93,13.73-5.59,23.43-19.06,23.43-34.81,0-20.75-16.82-37.57-37.57-37.57s-37.57,16.82-37.57,37.57,16.82,37.57,37.57,37.57c2.44,0,4.83-.24,7.14-.69,30.3,114.36,50.68,181.49,88.86,329.43h580.86c38.18-147.94,58.56-215.07,88.86-329.43,2.31.45,4.7.69,7.14.69,20.75,0,37.57-16.82,37.57-37.57s-16.82-37.57-37.57-37.57Z"/>
  <path d="M221.57,830.05c0,16.43,13.32,29.75,29.75,29.75h521.35c16.43,0,29.75-13.32,29.75-29.75v-81.78H221.57v81.78Z"/>
</svg>